# xmcd
#
# Track frame offsets:
#	150
#	18705
#	37001
#	55702
#	74081
#	99590
#	113677
#	130990
#	142912
#	163621
#	180875
#	198111
#	218628
#	237200
#
# Disc length: 3341 seconds
#
# Revision: 0
# Processed by: cddbd v1.5.2PL0 Copyright (c) Steve Scherf et al.
# Submitted via: dBpowerAMP V4.0
#
DISCID=be0d0b0e
DTITLE=Carlos Cézar e Cristiano - Vai e vem do carreiro
DYEAR=2001
DGENRE=Sertaneja
TTITLE0=O vai e vem do carreiro
TTITLE1=Moça caminhoneira
TTITLE2=Boiadeiro errante
TTITLE3=Os três boiadeiros
TTITLE4=Lembrança
TTITLE5=Amargurado
TTITLE6=Expresso boiadeiro
TTITLE7=Mercedita
TTITLE8=Pro que der e vier
TTITLE9=Pedra 90
TTITLE10=Berrante de ouro
TTITLE11=Caminheiro
TTITLE12=Cavalinho de pau
TTITLE13=Ex-amante
EXTD=
EXTT0=
EXTT1=
EXTT2=
EXTT3=
EXTT4=
EXTT5=
EXTT6=
EXTT7=
EXTT8=
EXTT9=
EXTT10=
EXTT11=
EXTT12=
EXTT13=
PLAYORDER=
